<svg width="80" height="80" viewBox="0 0 80 80" fill="none" xmlns="http://www.w3.org/2000/svg">
<path d="M77.3333 80H5.33333C3.91885 80 2.56229 79.4381 1.5621 78.4379C0.561903 77.4377 0 76.0812 0 74.6667V2.66667C0 1.95942 0.280951 1.28115 0.781048 0.781048C1.28115 0.280951 1.95942 0 2.66667 0C3.37391 0 4.05219 0.280951 4.55229 0.781048C5.05238 1.28115 5.33333 1.95942 5.33333 2.66667V74.6667H77.3333C78.0406 74.6667 78.7189 74.9476 79.219 75.4477C79.7191 75.9478 80 76.6261 80 77.3333C80 78.0406 79.7191 78.7189 79.219 79.219C78.7189 79.7191 78.0406 80 77.3333 80Z" fill="#36C285"/>
<path d="M23.3334 69.3333H16.6667C15.0754 69.3333 13.5493 68.7012 12.4241 67.576C11.2989 66.4508 10.6667 64.9246 10.6667 63.3333V38C10.6667 36.4087 11.2989 34.8826 12.4241 33.7574C13.5493 32.6321 15.0754 32 16.6667 32H23.3334C24.9247 32 26.4508 32.6321 27.5761 33.7574C28.7013 34.8826 29.3334 36.4087 29.3334 38V63.3333C29.3334 64.9246 28.7013 66.4508 27.5761 67.576C26.4508 68.7012 24.9247 69.3333 23.3334 69.3333Z" fill="#36C285"/>
<path d="M47.3333 69.3333H40.6666C39.0753 69.3333 37.5492 68.7012 36.424 67.576C35.2988 66.4508 34.6666 64.9246 34.6666 63.3333V30C34.6666 28.4087 35.2988 26.8826 36.424 25.7574C37.5492 24.6321 39.0753 24 40.6666 24H47.3333C48.9246 24 50.4507 24.6321 51.5759 25.7574C52.7012 26.8826 53.3333 28.4087 53.3333 30V63.3333C53.3333 64.9246 52.7012 66.4508 51.5759 67.576C50.4507 68.7012 48.9246 69.3333 47.3333 69.3333Z" fill="#36C285"/>
<path d="M71.2734 69.3335H64.6067C63.0154 69.3335 61.4893 68.7014 60.364 67.5761C59.2388 66.4509 58.6067 64.9248 58.6067 63.3335V19.3335C58.6067 17.7422 59.2388 16.2161 60.364 15.0909C61.4893 13.9656 63.0154 13.3335 64.6067 13.3335H71.2734C72.8647 13.3335 74.3908 13.9656 75.516 15.0909C76.6412 16.2161 77.2734 17.7422 77.2734 19.3335V63.3335C77.2734 64.9248 76.6412 66.4509 75.516 67.5761C74.3908 68.7014 72.8647 69.3335 71.2734 69.3335Z" fill="#36C285"/>
</svg>
