<svg width="90" height="70" viewBox="0 0 90 70" fill="none" xmlns="http://www.w3.org/2000/svg">
<path d="M78.4091 0H11.5909C8.63832 0.0031584 5.80757 1.17747 3.71978 3.26525C1.63199 5.35304 0.457687 8.18379 0.454529 11.1364V58.8636C0.457687 61.8162 1.63199 64.647 3.71978 66.7347C5.80757 68.8225 8.63832 69.9968 11.5909 70H78.4091C81.3617 69.9968 84.1924 68.8225 86.2802 66.7347C88.368 64.647 89.5423 61.8162 89.5454 58.8636V11.1364C89.5423 8.18379 88.368 5.35304 86.2802 3.26525C84.1924 1.17747 81.3617 0.0031584 78.4091 0ZM75.5892 18.4207L46.9528 40.6935C46.3944 41.1276 45.7073 41.3632 45 41.3632C44.2927 41.3632 43.6056 41.1276 43.0471 40.6935L14.4108 18.4207C14.0743 18.1667 13.7917 17.8482 13.5794 17.484C13.3671 17.1198 13.2293 16.717 13.1739 16.299C13.1186 15.881 13.147 15.4562 13.2572 15.0493C13.3675 14.6424 13.5576 14.2614 13.8164 13.9286C14.0752 13.5957 14.3975 13.3176 14.7647 13.1105C15.1319 12.9033 15.5366 12.7711 15.9553 12.7217C16.374 12.6723 16.7984 12.7066 17.2037 12.8226C17.6091 12.9386 17.9873 13.134 18.3165 13.3974L45 34.1509L71.6835 13.3974C72.3507 12.8936 73.1895 12.6726 74.0184 12.7823C74.8473 12.8919 75.5997 13.3235 76.1129 13.9835C76.6261 14.6436 76.8589 15.4792 76.7609 16.3095C76.6629 17.1399 76.242 17.8983 75.5892 18.4207Z" fill="#36C285"/>
</svg>
