<svg width="48" height="86" viewBox="0 0 48 86" fill="none" xmlns="http://www.w3.org/2000/svg">
<path d="M37.3334 3H10.6667C6.24841 3 2.66669 6.58172 2.66669 11V75C2.66669 79.4183 6.24841 83 10.6667 83H37.3334C41.7516 83 45.3334 79.4183 45.3334 75V11C45.3334 6.58172 41.7516 3 37.3334 3Z" stroke="#36C285" stroke-width="5" stroke-linecap="round" stroke-linejoin="round"/>
<path d="M10.6667 3H14.6667C15.0203 3 15.3594 3.14048 15.6095 3.39052C15.8595 3.64057 16 3.97971 16 4.33333C16 5.04058 16.281 5.71885 16.7811 6.21895C17.2812 6.71905 17.9594 7 18.6667 7H29.3334C30.0406 7 30.7189 6.71905 31.219 6.21895C31.7191 5.71885 32 5.04058 32 4.33333C32 3.97971 32.1405 3.64057 32.3905 3.39052C32.6406 3.14048 32.9797 3 33.3334 3H37.3334" stroke="#36C285" stroke-width="5" stroke-linecap="round" stroke-linejoin="round"/>
</svg>
