<svg width="82" height="80" viewBox="0 0 82 80" fill="none" xmlns="http://www.w3.org/2000/svg">
<path d="M36.9221 58.5804C36.6239 58.5816 36.3274 58.5352 36.0439 58.443C35.534 58.2781 35.0808 57.973 34.7362 57.5626C34.3915 57.1523 34.1692 56.6533 34.0947 56.1226C33.711 53.4452 30.5338 50.3287 27.5583 49.7236C27.0669 49.622 26.611 49.3927 26.2365 49.0589C25.8619 48.725 25.5819 48.2984 25.4247 47.8219C25.2674 47.3455 25.2384 46.836 25.3407 46.3448C25.443 45.8536 25.6728 45.398 26.0072 45.0238L63.6855 3.05992C63.7194 3.02066 63.7551 2.98317 63.7908 2.94747C65.6836 1.05995 68.2476 0 70.9207 0C73.5938 0 76.1578 1.05995 78.0506 2.94747C79.9374 4.83549 80.9989 7.39437 81.0026 10.0635C81.0062 12.7327 79.9518 15.2945 78.0703 17.1877L38.9801 57.7058C38.7136 57.9826 38.3939 58.2027 38.0403 58.3529C37.6866 58.5032 37.3063 58.5806 36.9221 58.5804Z" fill="#36C285"/>
<path d="M16.7059 79.9999C10.9691 79.9999 5.02347 76.9852 1.56069 72.3247C1.24508 71.8998 1.05378 71.3955 1.00814 70.8681C0.962494 70.3408 1.06431 69.8111 1.30221 69.3383C1.54011 68.8655 1.90474 68.468 2.3554 68.1904C2.80606 67.9127 3.32501 67.7658 3.85433 67.766C4.80749 67.766 7.42421 66.8967 7.42421 64.0944C7.42421 57.1206 13.0289 51.4463 19.9188 51.4463C26.8086 51.4463 32.4134 57.1206 32.4134 64.0944C32.4134 72.862 25.3664 79.9999 16.7059 79.9999Z" fill="#36C285"/>
</svg>
