<svg width="86" height="80" viewBox="0 0 86 80" fill="none" xmlns="http://www.w3.org/2000/svg">
<path d="M74.4285 0H11.5714C8.54136 0.00330867 5.63638 1.20845 3.49383 3.35101C1.35127 5.49356 0.146131 8.39854 0.142822 11.4286V68.5714C0.146131 71.6015 1.35127 74.5064 3.49383 76.649C5.63638 78.7915 8.54136 79.9967 11.5714 80H74.4285C77.4586 79.9967 80.3635 78.7915 82.5061 76.649C84.6487 74.5064 85.8538 71.6015 85.8571 68.5714V11.4286C85.8538 8.39854 84.6487 5.49356 82.5061 3.35101C80.3635 1.20845 77.4586 0.00330867 74.4285 0ZM14.4285 40C13.8366 40 13.2593 39.8161 12.7763 39.4738C12.2934 39.1315 11.9287 38.6477 11.7326 38.0891C11.5366 37.5306 11.5189 36.9249 11.6819 36.3559C11.845 35.7868 12.1807 35.2825 12.6428 34.9125L24.141 25.7143L12.6428 16.5161C12.3497 16.2816 12.1056 15.9916 11.9245 15.6628C11.7435 15.334 11.6289 14.9727 11.5875 14.5996C11.546 14.2265 11.5785 13.8489 11.6829 13.4883C11.7874 13.1278 11.9619 12.7913 12.1964 12.4982C12.4309 12.2051 12.7208 11.961 13.0497 11.7799C13.3785 11.5989 13.7398 11.4843 14.1129 11.4429C14.486 11.4014 14.8636 11.4339 15.2241 11.5383C15.5847 11.6428 15.9211 11.8173 16.2143 12.0518L30.5 23.4804C30.835 23.748 31.1054 24.0876 31.2913 24.474C31.4771 24.8604 31.5736 25.2837 31.5736 25.7125C31.5736 26.1413 31.4771 26.5646 31.2913 26.951C31.1054 27.3374 30.835 27.677 30.5 27.9446L16.2143 39.3732C15.7075 39.7789 15.0777 40 14.4285 40ZM43 40H31.5714C30.8136 40 30.0869 39.699 29.5511 39.1632C29.0153 38.6273 28.7143 37.9006 28.7143 37.1429C28.7143 36.3851 29.0153 35.6584 29.5511 35.1226C30.0869 34.5867 30.8136 34.2857 31.5714 34.2857H43C43.7577 34.2857 44.4845 34.5867 45.0203 35.1226C45.5561 35.6584 45.8571 36.3851 45.8571 37.1429C45.8571 37.9006 45.5561 38.6273 45.0203 39.1632C44.4845 39.699 43.7577 40 43 40Z" fill="#36C285"/>
</svg>
